<svg width="200" height="200" viewBox="0 0 200 200" fill="none" xmlns="http://www.w3.org/2000/svg">
<path d="M104.5 192C200 188 88.0678 171.071 88.7209 145.496C89.4704 116.152 231.46 118.162 181.557 116.888C131.654 115.613 29.2115 126.466 28.249 164.156C28.194 166.31 66.5205 193.591 104.5 192Z" fill="white"/>
<path d="M95 9H106L103.433 37H97.5667L95 9Z" fill="white"/>
<path d="M9 106V95L37 97.5667V103.433L9 106Z" fill="white"/>
<path d="M192 95V106L164 103.433V97.5667L192 95Z" fill="white"/>
<path d="M160.342 31L168.175 38.7231L146.689 56.8593L142.511 52.7403L160.342 31Z" fill="white"/>
<path d="M31 39.6915L38.7231 31.8586L56.8593 53.345L52.7403 57.5225L31 39.6915Z" fill="white"/>
<path d="M59 19.2022L69.1657 15L77.4902 41.8569L72.0685 44.098L59 19.2022Z" fill="white"/>
<path d="M17.2022 139.862L13 129.697L39.8569 121.372L42.098 126.794L17.2022 139.862Z" fill="white"/>
<path d="M183.856 61.9137L188.058 72.0794L161.201 80.4039L158.96 74.9822L183.856 61.9137Z" fill="white"/>
<path d="M130.151 14.8615L140.34 19.0065L127.411 43.9754L121.977 41.7647L130.151 14.8615Z" fill="white"/>
<path d="M13.9384 72.3049L18.0834 62.1157L43.0522 75.0441L40.8416 80.4783L13.9384 72.3049Z" fill="white"/>
<path d="M187.98 131.358L183.125 141.229L159.133 126.567L161.722 121.303L187.98 131.358Z" fill="white"/>
<circle cx="100" cy="100" r="94.5" stroke="white" stroke-width="11"/>
<circle cx="100" cy="100" r="94.5" stroke="white" stroke-width="11"/>
<path d="M117.306 17.0347L105.744 101.324L90.5592 97.8002L117.306 17.0347Z" fill="white"/>
<path d="M89.926 101.474L104.479 104.982L94.0899 115.119L89.926 101.474Z" fill="white"/>
</svg>
