<svg width="200" height="212" viewBox="0 0 200 212" fill="none" xmlns="http://www.w3.org/2000/svg">
<circle cx="100.5" cy="112.5" r="91.5" fill="#3B82C4"/>
<path d="M190.5 136C174 199 135.5 193.5 89.5 201.5C17 198 21 161 2.98227 120C62.9823 130 61.5 55 147.5 100.5C169 93 196.26 114.008 190.5 136Z" fill="#60AB00"/>
<path d="M192 139.5C178 159 164.699 206 104.5 206C44.301 206 10.5 164.815 10.5 143C10.5 121.185 42 124 104.5 121C167.5 125.559 195.5 117.5 192 139.5Z" fill="#316C3E"/>
<path d="M182.5 71.5C159.21 90.1879 119.5 38 74.9906 75.7996C19.5 116 13.0179 79.7218 16.2618 65.7516C19.5056 51.7815 82.984 15.1095 105.42 20.319C129 13 185.744 57.5298 182.5 71.5Z" fill="#4B60CC"/>
<path d="M104.5 204C200 200 88.0678 183.071 88.7209 157.496C89.4704 128.152 231.46 130.162 181.557 128.888C131.654 127.613 29.2115 138.466 28.249 176.156C28.194 178.31 66.5205 205.591 104.5 204Z" fill="#2E2E2E"/>
<circle cx="100" cy="112" r="94.5" stroke="white" stroke-width="11"/>
<circle cx="100" cy="112" r="94.5" stroke="white" stroke-opacity="0.2" stroke-width="11"/>
<path d="M117.306 29.0347L105.744 113.324L90.5592 109.8L117.306 29.0347Z" fill="white"/>
<path d="M89.926 113.474L104.479 116.982L94.0899 127.119L89.926 113.474Z" fill="white"/>
<path d="M95 21H106L103.433 49H97.5667L95 21Z" fill="white"/>
<path d="M9 118V107L37 109.567V115.433L9 118Z" fill="white"/>
<path d="M192 107V118L164 115.433V109.567L192 107Z" fill="white"/>
<path d="M160.342 43L168.175 50.7231L146.689 68.8593L142.511 64.7403L160.342 43Z" fill="white"/>
<path d="M31 51.6915L38.7231 43.8586L56.8593 65.345L52.7403 69.5225L31 51.6915Z" fill="white"/>
<path d="M59 31.2022L69.1657 27L77.4902 53.8569L72.0685 56.098L59 31.2022Z" fill="white"/>
<path d="M17.2022 151.862L13 141.697L39.8569 133.372L42.098 138.794L17.2022 151.862Z" fill="white"/>
<path d="M183.856 73.9137L188.058 84.0794L161.201 92.4039L158.96 86.9822L183.856 73.9137Z" fill="white"/>
<path d="M130.151 26.8615L140.34 31.0065L127.411 55.9754L121.977 53.7647L130.151 26.8615Z" fill="white"/>
<path d="M13.9384 84.3049L18.0834 74.1157L43.0522 87.0441L40.8416 92.4784L13.9384 84.3049Z" fill="white"/>
<path d="M187.98 143.358L183.125 153.229L159.133 138.567L161.722 133.303L187.98 143.358Z" fill="white"/>
</svg>
